<?xml version="1.0" encoding="utf-8"?>
<!-- Generator: Adobe Illustrator 22.1.0, SVG Export Plug-In . SVG Version: 6.00 Build 0)  -->
<svg version="1.1" id="Calque_1" xmlns="http://www.w3.org/2000/svg" xmlns:xlink="http://www.w3.org/1999/xlink" x="0px" y="0px"
	 viewBox="0 0 36 36" style="enable-background:new 0 0 36 36;" xml:space="preserve">
<g id="Symbols">
	<g id="sections_x2F_section-footer" transform="translate(-1188.000000, -382.000000)">
		<g id="footer">
			<g id="Group-9" transform="translate(1142.000000, 381.000000)">
				<g id="Page-1" transform="translate(46.000000, 1.000000)">
					<path id="Fill-1" d="M21.6,16.2l-0.1,1.4h-2.7v9h-3.6v-9h-1.8v-1.4V14h1.8v-1.6c0-1.5,0.7-3.8,3.8-3.8h2.8v3.1h-2
						c-0.3,0-0.8,0.2-0.8,0.9V14h2.9L21.6,16.2z M30.1,5.2C26.9,2,22.5,0,17.6,0C12.8,0,8.4,2,5.2,5.2S0,12.8,0,17.6s2,9.3,5.2,12.5
						s7.6,5.2,12.5,5.2c4.9,0,9.3-2,12.5-5.2c3.2-3.2,5.2-7.6,5.2-12.5S33.3,8.4,30.1,5.2z"/>
				</g>
			</g>
		</g>
	</g>
</g>
</svg>
