<?xml version="1.0" encoding="utf-8"?>
<!-- Generator: Adobe Illustrator 22.1.0, SVG Export Plug-In . SVG Version: 6.00 Build 0)  -->
<svg version="1.1" id="Calque_1" xmlns="http://www.w3.org/2000/svg" xmlns:xlink="http://www.w3.org/1999/xlink" x="0px" y="0px"
	 viewBox="0 0 36 36" style="enable-background:new 0 0 36 36;" xml:space="preserve">
<g id="Symbols">
	<g id="sections_x2F_section-footer" transform="translate(-1142.000000, -382.000000)">
		<g id="footer">
			<g id="Group-9" transform="translate(1142.000000, 381.000000)">
				<g id="Page-1" transform="translate(0.000000, 1.000000)">
					<path id="Fill-1" d="M25.6,25.6h-3.2v-5.2c0-1.2-0.1-2.8-1.8-2.8c-1.7,0-2,1.3-2,2.7v5.3h-3.1V17v-2h3v1.4h0
						C19,15.6,20,15,21.6,15c2.7,0,3.6,1.2,3.9,3.3c0.1,0.5,0.1,1,0.1,1.5V25.6z M11.5,13.4c-1,0-1.9-0.8-1.9-1.9
						c0-1,0.8-1.9,1.9-1.9c1,0,1.9,0.8,1.9,1.9C13.4,12.5,12.5,13.4,11.5,13.4z M13.4,17.2v8.4H9.7v-7.8V15h3.7V17.2z M30.1,5.2
						C26.9,2,22.5,0,17.6,0C12.8,0,8.4,2,5.2,5.2C2,8.4,0,12.8,0,17.6c0,4.9,2,9.3,5.2,12.5c3.2,3.2,7.6,5.2,12.5,5.2
						c4.9,0,9.3-2,12.5-5.2c3.2-3.2,5.2-7.6,5.2-12.5C35.2,12.8,33.3,8.4,30.1,5.2z"/>
				</g>
			</g>
		</g>
	</g>
</g>
</svg>
