<?xml version="1.0" encoding="utf-8"?>
<!-- Generator: Adobe Illustrator 22.1.0, SVG Export Plug-In . SVG Version: 6.00 Build 0)  -->
<svg version="1.1" id="Calque_1" xmlns="http://www.w3.org/2000/svg" xmlns:xlink="http://www.w3.org/1999/xlink" x="0px" y="0px"
	 viewBox="0 0 36 36" style="enable-background:new 0 0 36 36;" xml:space="preserve">
<g id="Symbols">
	<g id="sections_x2F_section-footer" transform="translate(-1234.000000, -382.000000)">
		<g id="footer">
			<g id="Group-9" transform="translate(1142.000000, 381.000000)">
				<g id="Page-1" transform="translate(92.000000, 0.000000)">
					<g id="Group-3" transform="translate(0.000000, 0.248900)">
						<path id="Fill-1" d="M26.6,17.9v1.2c0,1.5-0.2,3-0.2,3s-0.2,1.3-0.7,1.9c-0.7,0.8-1.5,0.8-1.8,0.8C21.4,25,17.6,25,17.6,25
							s-4.7,0-6.1-0.2c-0.4-0.1-1.3,0-2-0.8c-0.5-0.6-0.7-1.9-0.7-1.9s-0.2-1.5-0.2-3v-1.2v-0.2c0-1.5,0.2-3,0.2-3s0.2-1.3,0.7-1.9
							C10.2,12,11,12,11.3,12c2.5-0.2,6.3-0.2,6.3-0.2h0c0,0,3.8,0,6.3,0.2c0.3,0,1.1,0.1,1.8,0.8c0.5,0.6,0.7,1.9,0.7,1.9
							s0.2,1.5,0.2,3V17.9z M30.1,5.9c-3.2-3.2-7.6-5.2-12.5-5.2s-9.3,2-12.5,5.2C2,9.1,0,13.5,0,18.4c0,4.9,2,9.3,5.2,12.5
							C8.4,34,12.8,36,17.6,36s9.3-2,12.5-5.2c3.2-3.2,5.2-7.6,5.2-12.5C35.2,13.5,33.3,9.1,30.1,5.9z"/>
					</g>
					<polygon id="Fill-4" points="15.8,15.8 15.8,17 15.8,21 20.6,18.4 18,17 					"/>
				</g>
			</g>
		</g>
	</g>
</g>
</svg>
